<svg width="42" height="42" viewBox="0 0 42 42" fill="none" xmlns="http://www.w3.org/2000/svg">
<path d="M31.0196 19.4062C31.0342 17.808 29.9131 16.461 28.4144 16.1256C29.0236 15.1295 29.4025 13.9746 29.4139 12.7246C29.4475 9.0481 26.4849 6.03091 22.8084 5.99732C20.2802 5.97423 18.0939 7.38264 16.9433 9.45055C15.8306 7.36197 13.6704 5.91384 11.1422 5.89074C7.46571 5.85715 4.44851 8.81971 4.41492 12.4962C4.40119 13.9995 4.90861 15.3792 5.74005 16.5018C5.31657 16.8056 4.97047 17.2047 4.7297 17.6669C4.48893 18.1291 4.36024 18.6415 4.35402 19.1626L4.23221 32.4954C4.21541 34.3336 5.69669 35.8422 7.53495 35.859L27.5341 36.0418C29.3724 36.0585 30.881 34.5773 30.8978 32.739L30.9379 28.3425L37.5739 31.7366L37.6804 20.0704L30.9836 23.3427L31.0196 19.4062ZM22.7779 9.33052C24.6162 9.34731 26.0975 10.8559 26.0807 12.6942C26.0639 14.5324 24.5553 16.0137 22.717 15.9969C20.8788 15.9801 19.3975 14.4715 19.4143 12.6333C19.4311 10.795 20.9397 9.31372 22.7779 9.33052ZM11.1118 9.22393C12.95 9.24073 14.4313 10.7493 14.4145 12.5876C14.3977 14.4258 12.8891 15.9071 11.0509 15.8903C9.2126 15.8735 7.73132 14.3649 7.74812 12.5267C7.76491 10.6884 9.27351 9.20714 11.1118 9.22393ZM7.5654 32.5258L7.68721 19.1931L27.6864 19.3758L27.5679 32.7086L7.5654 32.5258Z" fill="#247BA0"/>
</svg>
