<svg width="40" height="42" viewBox="0 0 40 42" fill="none" xmlns="http://www.w3.org/2000/svg">
<g clip-path="url(#clip0_1227_63)">
<path d="M19.9834 3.42114C10.7834 3.42114 3.33337 11.0843 3.33337 20.5264C3.33337 29.9685 10.7834 37.6317 19.9834 37.6317C29.2 37.6317 36.6667 29.9685 36.6667 20.5264C36.6667 11.0843 29.2 3.42114 19.9834 3.42114ZM20 34.2106C12.6334 34.2106 6.66671 28.0869 6.66671 20.5264C6.66671 12.9659 12.6334 6.8422 20 6.8422C27.3667 6.8422 33.3334 12.9659 33.3334 20.5264C33.3334 28.0869 27.3667 34.2106 20 34.2106Z" fill="#247BA0"/>
<path d="M20.8334 11.9736H18.3334V22.2368L27.0834 27.6249L28.3334 25.521L20.8334 20.9539V11.9736Z" fill="#247BA0"/>
</g>
<defs>
<clipPath id="clip0_1227_63">
<rect width="40" height="41.0526" fill="white"/>
</clipPath>
</defs>
</svg>
